<svg width="20" height="20" viewBox="0 0 20 20" fill="none" xmlns="http://www.w3.org/2000/svg">
<g clip-path="url(#clip0_2065_2685)">
<path d="M14.5833 10C15.7989 10 16.9647 10.4829 17.8242 11.3424C18.6837 12.202 19.1666 13.3678 19.1666 14.5833C19.1666 15.7989 18.6837 16.9647 17.8242 17.8242C16.9647 18.6838 15.7989 19.1667 14.5833 19.1667C13.3677 19.1667 12.2019 18.6838 11.3424 17.8242C10.4828 16.9647 9.99996 15.7989 9.99996 14.5833C9.99996 13.3678 10.4828 12.202 11.3424 11.3424C12.2019 10.4829 13.3677 10 14.5833 10ZM14.5833 11.6667L14.5083 11.6725C14.425 11.6877 14.3484 11.7279 14.2885 11.7878C14.2287 11.8476 14.1885 11.9242 14.1733 12.0075L14.1666 12.0833V14.1667H12.0816L12.0066 14.1733C11.9234 14.1885 11.8467 14.2287 11.7869 14.2886C11.727 14.3484 11.6868 14.4251 11.6716 14.5083L11.665 14.5833L11.6716 14.6583C11.6868 14.7416 11.727 14.8182 11.7869 14.8781C11.8467 14.9379 11.9234 14.9781 12.0066 14.9933L12.0816 15H14.1666V17.0858L14.1733 17.1608C14.1885 17.2441 14.2287 17.3207 14.2885 17.3806C14.3484 17.4404 14.425 17.4806 14.5083 17.4958L14.5833 17.5025L14.6583 17.4958C14.7415 17.4806 14.8182 17.4404 14.878 17.3806C14.9379 17.3207 14.9781 17.2441 14.9933 17.1608L15 17.0858V15L17.0866 15.0008L17.1616 14.9942C17.2449 14.979 17.3215 14.9388 17.3814 14.8789C17.4412 14.8191 17.4814 14.7424 17.4966 14.6592L17.5033 14.5842L17.4966 14.5092C17.4814 14.4258 17.441 14.3491 17.381 14.2892C17.321 14.2294 17.2442 14.1892 17.1608 14.1742L17.0858 14.1675H15V12.0842L14.9933 12.0092C14.9782 11.9258 14.9381 11.8489 14.8782 11.7889C14.8184 11.7289 14.7417 11.6886 14.6583 11.6733L14.5833 11.6667ZM11.8783 8.33333C12.2082 8.3334 12.5322 8.42049 12.8177 8.58583C13.1031 8.75117 13.3399 8.98889 13.5041 9.275C13.0664 9.36288 12.6414 9.50538 12.2391 9.69917C12.134 9.62364 12.0077 9.58311 11.8783 9.58333H8.12663C7.96087 9.58333 7.80189 9.64918 7.68468 9.76639C7.56747 9.8836 7.50163 10.0426 7.50163 10.2083V13.7492C7.50163 14.9242 8.31329 15.9108 9.40663 16.1783C9.54931 16.6451 9.7554 17.0901 10.0191 17.5008L10.0025 17.5C9.50986 17.5001 9.02207 17.4032 8.56695 17.2147C8.11183 17.0262 7.69829 16.75 7.34998 16.4016C7.00166 16.0533 6.72538 15.6398 6.53692 15.1847C6.34846 14.7296 6.25152 14.2418 6.25163 13.7492V10.2083C6.25163 9.71105 6.44917 9.23414 6.8008 8.88251C7.15243 8.53088 7.62934 8.33333 8.12663 8.33333H11.8783ZM6.17163 8.33333C5.83696 8.6816 5.60185 9.11327 5.49079 9.58333H3.54163C3.37587 9.58333 3.21689 9.64918 3.09968 9.76639C2.98247 9.8836 2.91663 10.0426 2.91663 10.2083V12.4992C2.91641 12.8141 2.98761 13.125 3.12487 13.4085C3.26213 13.692 3.46188 13.9406 3.70908 14.1358C3.95629 14.3309 4.24453 14.4675 4.55213 14.5352C4.85972 14.6029 5.17866 14.6 5.48496 14.5267C5.55579 14.9467 5.68496 15.3475 5.86246 15.72C5.5869 15.795 5.2994 15.8328 4.99996 15.8333C4.56215 15.8333 4.12863 15.7471 3.72416 15.5795C3.31968 15.412 2.95218 15.1663 2.64264 14.8567C2.3331 14.5471 2.08759 14.1795 1.92012 13.775C1.75266 13.3705 1.66652 12.937 1.66663 12.4992V10.2083C1.66657 9.73323 1.84687 9.27582 2.1711 8.92854C2.49533 8.58126 2.9393 8.37002 3.41329 8.3375L3.54163 8.33333H6.17163ZM16.4583 8.33333C16.9556 8.33333 17.4325 8.53088 17.7841 8.88251C18.1357 9.23414 18.3333 9.71105 18.3333 10.2083V10.675C17.3257 9.70572 15.9814 9.16502 14.5833 9.16667L14.3791 9.17083C14.2516 8.85975 14.0664 8.5756 13.8333 8.33333H16.4583ZM15.4166 3.33333C15.9692 3.33333 16.4991 3.55283 16.8898 3.94353C17.2805 4.33423 17.5 4.86413 17.5 5.41667C17.5 5.9692 17.2805 6.4991 16.8898 6.88981C16.4991 7.28051 15.9692 7.5 15.4166 7.5C14.8641 7.5 14.3342 7.28051 13.9435 6.88981C13.5528 6.4991 13.3333 5.9692 13.3333 5.41667C13.3333 4.86413 13.5528 4.33423 13.9435 3.94353C14.3342 3.55283 14.8641 3.33333 15.4166 3.33333ZM9.99996 2.5C10.663 2.5 11.2989 2.76339 11.7677 3.23223C12.2366 3.70107 12.5 4.33696 12.5 5C12.5 5.66304 12.2366 6.29893 11.7677 6.76777C11.2989 7.23661 10.663 7.5 9.99996 7.5C9.33692 7.5 8.70103 7.23661 8.23219 6.76777C7.76335 6.29893 7.49996 5.66304 7.49996 5C7.49996 4.33696 7.76335 3.70107 8.23219 3.23223C8.70103 2.76339 9.33692 2.5 9.99996 2.5ZM4.58329 3.33333C5.13583 3.33333 5.66573 3.55283 6.05643 3.94353C6.44713 4.33423 6.66663 4.86413 6.66663 5.41667C6.66663 5.9692 6.44713 6.4991 6.05643 6.88981C5.66573 7.28051 5.13583 7.5 4.58329 7.5C4.03076 7.5 3.50085 7.28051 3.11015 6.88981C2.71945 6.4991 2.49996 5.9692 2.49996 5.41667C2.49996 4.86413 2.71945 4.33423 3.11015 3.94353C3.50085 3.55283 4.03076 3.33333 4.58329 3.33333ZM15.4166 4.58333C15.1956 4.58333 14.9836 4.67113 14.8274 4.82741C14.6711 4.98369 14.5833 5.19565 14.5833 5.41667C14.5833 5.63768 14.6711 5.84964 14.8274 6.00592C14.9836 6.1622 15.1956 6.25 15.4166 6.25C15.6376 6.25 15.8496 6.1622 16.0059 6.00592C16.1622 5.84964 16.25 5.63768 16.25 5.41667C16.25 5.19565 16.1622 4.98369 16.0059 4.82741C15.8496 4.67113 15.6376 4.58333 15.4166 4.58333ZM9.99996 3.75C9.66844 3.75 9.3505 3.8817 9.11608 4.11612C8.88166 4.35054 8.74996 4.66848 8.74996 5C8.74996 5.33152 8.88166 5.64946 9.11608 5.88388C9.3505 6.1183 9.66844 6.25 9.99996 6.25C10.3315 6.25 10.6494 6.1183 10.8838 5.88388C11.1183 5.64946 11.25 5.33152 11.25 5C11.25 4.66848 11.1183 4.35054 10.8838 4.11612C10.6494 3.8817 10.3315 3.75 9.99996 3.75ZM4.58329 4.58333C4.36228 4.58333 4.15032 4.67113 3.99404 4.82741C3.83776 4.98369 3.74996 5.19565 3.74996 5.41667C3.74996 5.63768 3.83776 5.84964 3.99404 6.00592C4.15032 6.1622 4.36228 6.25 4.58329 6.25C4.80431 6.25 5.01627 6.1622 5.17255 6.00592C5.32883 5.84964 5.41663 5.63768 5.41663 5.41667C5.41663 5.19565 5.32883 4.98369 5.17255 4.82741C5.01627 4.67113 4.80431 4.58333 4.58329 4.58333Z" fill="#424242"/>
</g>
<defs>
<clipPath id="clip0_2065_2685">
<rect width="20" height="20" fill="white"/>
</clipPath>
</defs>
</svg>
