<svg width="20" height="20" viewBox="0 0 20 20" fill="none" xmlns="http://www.w3.org/2000/svg">
<mask id="path-1-inside-1_2065_2693" fill="white">
<path d="M17.3624 6.5385C17.4737 6.64984 17.5363 6.80084 17.5363 6.95828C17.5363 7.11572 17.4737 7.26672 17.3624 7.37806C16.853 7.88778 16.201 8.23101 15.4925 8.36246C14.7839 8.49391 14.0522 8.40739 13.3938 8.11431C13.2801 8.06317 13.1691 8.00609 13.0613 7.94331V8.125C13.0613 8.28247 12.9988 8.4335 12.8874 8.54484C12.7761 8.65619 12.625 8.71875 12.4676 8.71875C12.3101 8.71875 12.1591 8.65619 12.0477 8.54484C11.9364 8.4335 11.8738 8.28247 11.8738 8.125V6.34375C11.8738 6.18628 11.9364 6.03525 12.0477 5.92391C12.1591 5.81256 12.3101 5.75 12.4676 5.75H14.2488C14.4063 5.75 14.5573 5.81256 14.6687 5.92391C14.78 6.03525 14.8426 6.18628 14.8426 6.34375C14.8426 6.50122 14.78 6.65225 14.6687 6.76359C14.5573 6.87494 14.4063 6.9375 14.2488 6.9375H13.6931C13.7524 6.97075 13.8138 7.00123 13.8771 7.02894C14.1684 7.15882 14.4829 7.2287 14.8018 7.23442C15.1207 7.24013 15.4374 7.18155 15.7332 7.06219C16.0289 6.94344 16.2972 6.76531 16.5229 6.53969C16.6342 6.42838 16.7852 6.36585 16.9427 6.36585C17.1001 6.36585 17.2511 6.42719 17.3624 6.5385ZM17.2188 1.59375C17.0613 1.59375 16.9103 1.65631 16.7989 1.76766C16.6876 1.87901 16.625 2.03003 16.625 2.1875V2.368C15.9461 1.97478 15.1562 1.817 14.3783 1.91923C13.6004 2.02146 12.8781 2.37796 12.3239 2.93325C12.2157 3.04523 12.1559 3.19522 12.1572 3.35089C12.1586 3.50657 12.221 3.65549 12.3311 3.76558C12.4412 3.87567 12.5901 3.93811 12.7458 3.93946C12.9015 3.94082 13.0515 3.88097 13.1634 3.77281C13.3889 3.54746 13.6575 3.36981 13.9531 3.25047C14.2487 3.13112 14.5654 3.0725 14.8841 3.07812C15.2725 3.08488 15.6534 3.18682 15.9933 3.375H15.4375C15.28 3.375 15.129 3.43756 15.0177 3.54891C14.9063 3.66026 14.8438 3.81128 14.8438 3.96875C14.8438 4.12622 14.9063 4.27724 15.0177 4.38859C15.129 4.49994 15.28 4.5625 15.4375 4.5625H17.2188C17.3762 4.5625 17.5272 4.49994 17.6386 4.38859C17.7499 4.27724 17.8125 4.12622 17.8125 3.96875V2.1875C17.8125 2.03003 17.7499 1.87901 17.6386 1.76766C17.5272 1.65631 17.3762 1.59375 17.2188 1.59375ZM5.9375 14.6562C5.9375 14.8137 6.00006 14.9647 6.11141 15.0761C6.22276 15.1874 6.37378 15.25 6.53125 15.25H11.2812C11.4387 15.25 11.5897 15.1874 11.7011 15.0761C11.8124 14.9647 11.875 14.8137 11.875 14.6562C11.875 14.4988 11.8124 14.3478 11.7011 14.2364C11.5897 14.1251 11.4387 14.0625 11.2812 14.0625H6.53125C6.37378 14.0625 6.22276 14.1251 6.11141 14.2364C6.00006 14.3478 5.9375 14.4988 5.9375 14.6562ZM10.6875 8.125H9.5V6.34375C9.5 6.18628 9.43744 6.03525 9.32609 5.92391C9.21475 5.81256 9.06372 5.75 8.90625 5.75C8.74878 5.75 8.59775 5.81256 8.48641 5.92391C8.37506 6.03525 8.3125 6.18628 8.3125 6.34375V8.125H6.53125C6.37378 8.125 6.22276 8.18756 6.11141 8.29891C6.00006 8.41025 5.9375 8.56128 5.9375 8.71875C5.9375 8.87622 6.00006 9.02725 6.11141 9.13859C6.22276 9.24994 6.37378 9.3125 6.53125 9.3125H8.3125V11.0938C8.3125 11.2512 8.37506 11.4022 8.48641 11.5136C8.59775 11.6249 8.74878 11.6875 8.90625 11.6875C9.06372 11.6875 9.21475 11.6249 9.32609 11.5136C9.43744 11.4022 9.5 11.2512 9.5 11.0938V9.3125H11.1494C10.8543 8.98716 10.6898 8.56425 10.6875 8.125ZM14.25 9.53337V16.4375C14.25 16.7524 14.1249 17.0545 13.9022 17.2772C13.6795 17.4999 13.3774 17.625 13.0625 17.625H4.75C4.43506 17.625 4.13301 17.4999 3.91031 17.2772C3.68761 17.0545 3.5625 16.7524 3.5625 16.4375V4.5625C3.5625 4.24756 3.68761 3.94551 3.91031 3.72281C4.13301 3.50011 4.43506 3.375 4.75 3.375H10.1959C10.3526 3.375 10.5058 3.43912 10.6162 3.54837L10.9844 3.9165V2.3965C10.7412 2.26678 10.4713 2.19524 10.1959 2.1875H4.75C3.44019 2.1875 2.375 3.25269 2.375 4.5625V16.4375C2.375 17.7485 3.44019 18.8125 4.75 18.8125H13.0625C14.3723 18.8125 15.4375 17.7485 15.4375 16.4375V9.55356C15.2416 9.5785 15.0456 9.61056 14.8461 9.61056C14.6312 9.607 14.4483 9.55831 14.25 9.53337Z"/>
</mask>
<path d="M17.3624 6.5385C17.4737 6.64984 17.5363 6.80084 17.5363 6.95828C17.5363 7.11572 17.4737 7.26672 17.3624 7.37806C16.853 7.88778 16.201 8.23101 15.4925 8.36246C14.7839 8.49391 14.0522 8.40739 13.3938 8.11431C13.2801 8.06317 13.1691 8.00609 13.0613 7.94331V8.125C13.0613 8.28247 12.9988 8.4335 12.8874 8.54484C12.7761 8.65619 12.625 8.71875 12.4676 8.71875C12.3101 8.71875 12.1591 8.65619 12.0477 8.54484C11.9364 8.4335 11.8738 8.28247 11.8738 8.125V6.34375C11.8738 6.18628 11.9364 6.03525 12.0477 5.92391C12.1591 5.81256 12.3101 5.75 12.4676 5.75H14.2488C14.4063 5.75 14.5573 5.81256 14.6687 5.92391C14.78 6.03525 14.8426 6.18628 14.8426 6.34375C14.8426 6.50122 14.78 6.65225 14.6687 6.76359C14.5573 6.87494 14.4063 6.9375 14.2488 6.9375H13.6931C13.7524 6.97075 13.8138 7.00123 13.8771 7.02894C14.1684 7.15882 14.4829 7.2287 14.8018 7.23442C15.1207 7.24013 15.4374 7.18155 15.7332 7.06219C16.0289 6.94344 16.2972 6.76531 16.5229 6.53969C16.6342 6.42838 16.7852 6.36585 16.9427 6.36585C17.1001 6.36585 17.2511 6.42719 17.3624 6.5385ZM17.2188 1.59375C17.0613 1.59375 16.9103 1.65631 16.7989 1.76766C16.6876 1.87901 16.625 2.03003 16.625 2.1875V2.368C15.9461 1.97478 15.1562 1.817 14.3783 1.91923C13.6004 2.02146 12.8781 2.37796 12.3239 2.93325C12.2157 3.04523 12.1559 3.19522 12.1572 3.35089C12.1586 3.50657 12.221 3.65549 12.3311 3.76558C12.4412 3.87567 12.5901 3.93811 12.7458 3.93946C12.9015 3.94082 13.0515 3.88097 13.1634 3.77281C13.3889 3.54746 13.6575 3.36981 13.9531 3.25047C14.2487 3.13112 14.5654 3.0725 14.8841 3.07812C15.2725 3.08488 15.6534 3.18682 15.9933 3.375H15.4375C15.28 3.375 15.129 3.43756 15.0177 3.54891C14.9063 3.66026 14.8438 3.81128 14.8438 3.96875C14.8438 4.12622 14.9063 4.27724 15.0177 4.38859C15.129 4.49994 15.28 4.5625 15.4375 4.5625H17.2188C17.3762 4.5625 17.5272 4.49994 17.6386 4.38859C17.7499 4.27724 17.8125 4.12622 17.8125 3.96875V2.1875C17.8125 2.03003 17.7499 1.87901 17.6386 1.76766C17.5272 1.65631 17.3762 1.59375 17.2188 1.59375ZM5.9375 14.6562C5.9375 14.8137 6.00006 14.9647 6.11141 15.0761C6.22276 15.1874 6.37378 15.25 6.53125 15.25H11.2812C11.4387 15.25 11.5897 15.1874 11.7011 15.0761C11.8124 14.9647 11.875 14.8137 11.875 14.6562C11.875 14.4988 11.8124 14.3478 11.7011 14.2364C11.5897 14.1251 11.4387 14.0625 11.2812 14.0625H6.53125C6.37378 14.0625 6.22276 14.1251 6.11141 14.2364C6.00006 14.3478 5.9375 14.4988 5.9375 14.6562ZM10.6875 8.125H9.5V6.34375C9.5 6.18628 9.43744 6.03525 9.32609 5.92391C9.21475 5.81256 9.06372 5.75 8.90625 5.75C8.74878 5.75 8.59775 5.81256 8.48641 5.92391C8.37506 6.03525 8.3125 6.18628 8.3125 6.34375V8.125H6.53125C6.37378 8.125 6.22276 8.18756 6.11141 8.29891C6.00006 8.41025 5.9375 8.56128 5.9375 8.71875C5.9375 8.87622 6.00006 9.02725 6.11141 9.13859C6.22276 9.24994 6.37378 9.3125 6.53125 9.3125H8.3125V11.0938C8.3125 11.2512 8.37506 11.4022 8.48641 11.5136C8.59775 11.6249 8.74878 11.6875 8.90625 11.6875C9.06372 11.6875 9.21475 11.6249 9.32609 11.5136C9.43744 11.4022 9.5 11.2512 9.5 11.0938V9.3125H11.1494C10.8543 8.98716 10.6898 8.56425 10.6875 8.125ZM14.25 9.53337V16.4375C14.25 16.7524 14.1249 17.0545 13.9022 17.2772C13.6795 17.4999 13.3774 17.625 13.0625 17.625H4.75C4.43506 17.625 4.13301 17.4999 3.91031 17.2772C3.68761 17.0545 3.5625 16.7524 3.5625 16.4375V4.5625C3.5625 4.24756 3.68761 3.94551 3.91031 3.72281C4.13301 3.50011 4.43506 3.375 4.75 3.375H10.1959C10.3526 3.375 10.5058 3.43912 10.6162 3.54837L10.9844 3.9165V2.3965C10.7412 2.26678 10.4713 2.19524 10.1959 2.1875H4.75C3.44019 2.1875 2.375 3.25269 2.375 4.5625V16.4375C2.375 17.7485 3.44019 18.8125 4.75 18.8125H13.0625C14.3723 18.8125 15.4375 17.7485 15.4375 16.4375V9.55356C15.2416 9.5785 15.0456 9.61056 14.8461 9.61056C14.6312 9.607 14.4483 9.55831 14.25 9.53337Z" fill="black" stroke="#424242" stroke-width="2" mask="url(#path-1-inside-1_2065_2693)"/>
</svg>
