<svg width="22" height="22" viewBox="0 0 22 22" fill="none" xmlns="http://www.w3.org/2000/svg">
<path d="M5.83268 4.83333C6.33894 4.83333 6.74935 4.42293 6.74935 3.91667C6.74935 3.41041 6.33894 3 5.83268 3C5.32642 3 4.91602 3.41041 4.91602 3.91667C4.91602 4.42293 5.32642 4.83333 5.83268 4.83333Z" stroke="black" stroke-miterlimit="10"/>
<path d="M4 7.88908C4 7.88908 4.30556 6.57183 4.91667 6.26628C5.52778 5.96072 6.13889 5.96072 6.75 6.26628C7.36111 6.57183 7.66667 7.88908 7.66667 7.88908" stroke="black" stroke-linecap="round" stroke-linejoin="round"/>
<path d="M17.109 8.96029C17.6153 8.96029 18.0257 8.54988 18.0257 8.04362C18.0257 7.53736 17.6153 7.12695 17.109 7.12695C16.6028 7.12695 16.1924 7.53736 16.1924 8.04362C16.1924 8.54988 16.6028 8.96029 17.109 8.96029Z" stroke="black" stroke-miterlimit="10"/>
<path d="M15.2754 12.016C15.2754 12.016 15.5809 10.6988 16.1921 10.3932C16.8032 10.0877 17.4143 10.0877 18.0254 10.3932C18.6365 10.6988 18.9421 12.0157 18.9421 12.0157" stroke="black" stroke-linecap="round" stroke-linejoin="round"/>
<path d="M9.16471 15.2806C9.67097 15.2806 10.0814 14.8702 10.0814 14.3639C10.0814 13.8577 9.67097 13.4473 9.16471 13.4473C8.65845 13.4473 8.24805 13.8577 8.24805 14.3639C8.24805 14.8702 8.65845 15.2806 9.16471 15.2806Z" stroke="black" stroke-miterlimit="10"/>
<path d="M7.33152 18.3361C7.33152 18.3361 7.63708 17.0189 8.24819 16.7133C8.8593 16.4077 9.47041 16.4077 10.0815 16.7133C10.6926 17.0189 10.9982 18.3358 10.9982 18.3358M16.0579 6.15299C14.7687 4.63224 12.8444 3.66699 10.6948 3.66699C9.84838 3.66699 9.03744 3.81671 8.28608 4.0908M12.0493 17.5921C14.5588 17.102 16.5905 15.2769 17.3742 12.8859M3.69358 10.08C3.67574 10.2844 3.66687 10.4896 3.66699 10.6948C3.66699 13.1313 4.90694 15.2781 6.79038 16.5391" stroke="black" stroke-linecap="round" stroke-linejoin="round"/>
</svg>
