<svg width="38" height="38" viewBox="0 0 38 38" fill="none" xmlns="http://www.w3.org/2000/svg">
<path d="M18.0503 20.2493L21.3753 16.9243L24.7003 20.2493L25.7897 19.1583L22.4647 15.8333L25.7897 12.5083L24.7003 11.4174L21.3753 14.7424L18.0503 11.4174L16.961 12.5083L20.286 15.8333L16.961 19.1583L18.0503 20.2493ZM12.8507 26.9167C12.1213 26.9167 11.5127 26.6728 11.0251 26.1852C10.5374 25.6975 10.2931 25.089 10.292 24.3596V7.30709C10.292 6.57875 10.5364 5.97023 11.0251 5.4815C11.5138 4.99278 12.1223 4.74895 12.8507 4.75H29.9016C30.6299 4.75 31.2384 4.99384 31.7272 5.4815C32.2159 5.96917 32.4597 6.5777 32.4587 7.30709V24.3596C32.4587 25.0879 32.2148 25.6959 31.7272 26.1836C31.2395 26.6713 30.6304 26.9156 29.9 26.9167H12.8507ZM12.8507 25.3333H29.9016C30.1444 25.3333 30.3676 25.232 30.5713 25.0293C30.7751 24.8267 30.8764 24.6034 30.8753 24.3596V7.30709C30.8753 7.06431 30.774 6.84106 30.5713 6.63734C30.3687 6.43361 30.1449 6.33228 29.9 6.33334H12.8507C12.6068 6.33334 12.3831 6.43467 12.1793 6.63734C11.9756 6.84 11.8743 7.06325 11.8753 7.30709V24.3596C11.8753 24.6024 11.9767 24.8256 12.1793 25.0293C12.382 25.2331 12.6052 25.3344 12.8491 25.3333M8.09908 31.6667C7.37075 31.6667 6.76222 31.4228 6.2735 30.9352C5.78477 30.4475 5.54094 29.839 5.542 29.1096V10.4738H7.12533V29.1096C7.12533 29.3524 7.22666 29.5756 7.42933 29.7793C7.632 29.9831 7.85525 30.0844 8.09908 30.0833H26.7349V31.6667H8.09908Z" fill="currentColor"/>
</svg>
