<svg width="22" height="22" viewBox="0 0 22 22" fill="none" xmlns="http://www.w3.org/2000/svg">
<path d="M6.868 6.781L9.535 2.379C9.62167 2.23833 9.72433 2.14 9.843 2.084C9.961 2.028 10.0903 2 10.231 2C10.3717 2 10.5013 2.028 10.62 2.084C10.7387 2.14 10.841 2.23833 10.927 2.379L13.595 6.781C13.6817 6.91567 13.725 7.057 13.725 7.205C13.725 7.353 13.69 7.48933 13.62 7.614C13.55 7.73867 13.455 7.837 13.335 7.909C13.215 7.981 13.076 8.01733 12.918 8.018H7.545C7.38567 8.018 7.24633 7.98167 7.127 7.909C7.00767 7.837 6.913 7.74033 6.843 7.619C6.773 7.49767 6.73767 7.363 6.737 7.215C6.73633 7.067 6.77967 6.92233 6.867 6.781M15.731 19.018C14.6863 19.018 13.8033 18.6573 13.082 17.936C12.3607 17.2147 12 16.3317 12 15.287C12 14.2423 12.3607 13.3593 13.082 12.638C13.8033 11.9167 14.6863 11.556 15.731 11.556C16.7757 11.556 17.6587 11.9167 18.38 12.638C19.1013 13.3593 19.462 14.2423 19.462 15.287C19.462 16.3317 19.1013 17.2147 18.38 17.936C17.6587 18.6573 16.7757 19.018 15.731 19.018ZM2.001 17.709V12.859C2.001 12.6303 2.078 12.4393 2.232 12.286C2.38733 12.1327 2.57933 12.056 2.808 12.056H7.658C7.88733 12.056 8.07867 12.1333 8.232 12.288C8.38533 12.4433 8.462 12.6357 8.462 12.865V17.715C8.462 17.9437 8.38433 18.1347 8.229 18.288C8.07433 18.4413 7.88233 18.518 7.653 18.518H2.803C2.57433 18.518 2.38333 18.4403 2.23 18.285C2.07667 18.1303 2.001 17.9383 2.001 17.709ZM15.73 18.018C16.4947 18.018 17.1413 17.754 17.67 17.226C18.1987 16.698 18.4627 16.0517 18.462 15.287C18.4613 14.5223 18.1973 13.876 17.67 13.348C17.1427 12.82 16.4963 12.556 15.731 12.556C14.9657 12.556 14.3193 12.82 13.792 13.348C13.2647 13.876 13.0007 14.5223 13 15.287C12.9993 16.0517 13.2633 16.698 13.792 17.226C14.3207 17.754 14.9667 18.018 15.73 18.018ZM3 17.518H7.462V13.056H3V17.518ZM7.858 7.018H12.604L10.231 3.214L7.858 7.018Z" fill="black"/>
</svg>
