<svg width="20" height="20" viewBox="0 0 20 20" fill="none" xmlns="http://www.w3.org/2000/svg">
<path d="M7 2.75V13.25C7 13.7141 7.1756 14.1592 7.48816 14.4874C7.80072 14.8156 8.22464 15 8.66667 15H15.3333C15.7754 15 16.1993 14.8156 16.5118 14.4874C16.8244 14.1592 17 13.7141 17 13.25V5.58675C17 5.35361 16.9556 5.12284 16.8694 4.90796C16.7833 4.69309 16.6571 4.49846 16.4983 4.3355L13.7358 1.49875C13.4245 1.17908 13.0063 1.00006 12.5708 1H8.66667C8.22464 1 7.80072 1.18437 7.48816 1.51256C7.1756 1.84075 7 2.28587 7 2.75Z" stroke="#242424" stroke-linecap="round" stroke-linejoin="round"/>
<path d="M14 15.5333V17.2667C14 17.7264 13.8068 18.1673 13.463 18.4923C13.1192 18.8174 12.6529 19 12.1667 19H4.83333C4.3471 19 3.88079 18.8174 3.53697 18.4923C3.19315 18.1673 3 17.7264 3 17.2667V7.73333C3 7.27362 3.19315 6.83274 3.53697 6.50768C3.88079 6.18262 4.3471 6 4.83333 6H6.66667" stroke="#242424" stroke-linecap="round" stroke-linejoin="round"/>
</svg>
