<svg width="20" height="20" viewBox="0 0 20 20" fill="none" xmlns="http://www.w3.org/2000/svg">
<path d="M12.2709 6.33333C12.2709 5.28352 11.8539 4.2767 11.1115 3.53437C10.3692 2.79204 9.3624 2.375 8.31258 2.375C7.26277 2.375 6.25595 2.79204 5.51362 3.53437C4.77129 4.2767 4.35425 5.28352 4.35425 6.33333C4.35425 7.38315 4.77129 8.38997 5.51362 9.1323C6.25595 9.87463 7.26277 10.2917 8.31258 10.2917C9.3624 10.2917 10.3692 9.87463 11.1115 9.1323C11.8539 8.38997 12.2709 7.38315 12.2709 6.33333Z" stroke="#424242" stroke-linecap="round" stroke-linejoin="round"/>
<path d="M2.77087 15.8333C2.77076 14.8605 3.02674 13.9048 3.51307 13.0623C3.99941 12.2197 4.69897 11.5201 5.54143 11.0336C6.38388 10.5472 7.33956 10.291 8.31238 10.291C9.2852 10.291 10.2409 10.547 11.0834 11.0335M15.983 11.8227L15.4898 11.3295C15.332 11.1718 15.118 11.0832 14.8949 11.0832C14.6717 11.0832 14.4577 11.1718 14.2999 11.3295L11.6486 13.9816C11.2968 14.3341 11.0567 14.7823 10.9583 15.2705L10.6875 16.625L12.0413 16.3543C12.53 16.2561 12.9788 16.016 13.3317 15.6639L15.983 13.0126C16.1407 12.8548 16.2294 12.6408 16.2294 12.4177C16.2294 12.1946 16.1407 11.9806 15.983 11.8227Z" stroke="#424242" stroke-linecap="round" stroke-linejoin="round"/>
</svg>
