<svg width="18" height="18" viewBox="0 0 18 18" fill="none" xmlns="http://www.w3.org/2000/svg">
<g clip-path="url(#clip0_2255_2004)">
<path d="M16.8104 8.76465C15.1254 5.64965 12.1704 3.76465 8.90035 3.76465C5.63035 3.76465 2.67035 5.64965 1.00035 8.76465L0.860352 8.99965L0.990352 9.23965C2.67535 12.3546 5.63035 14.2396 8.90035 14.2396C12.1704 14.2396 15.1304 12.3796 16.8104 9.23965L16.9404 8.99965L16.8104 8.76465ZM8.90035 13.2146C6.08535 13.2146 3.50035 11.6446 2.00035 8.99965C3.50035 6.35465 6.08535 4.78465 8.90035 4.78465C11.7154 4.78465 14.2704 6.35965 15.7954 8.99965C14.2704 11.6446 11.7104 13.2146 8.90035 13.2146Z" fill="#424242"/>
<path d="M9.04523 12.445C10.9396 12.445 12.4752 10.9093 12.4752 9.01496C12.4752 7.12062 10.9396 5.58496 9.04523 5.58496C7.1509 5.58496 5.61523 7.12062 5.61523 9.01496C5.61523 10.9093 7.1509 12.445 9.04523 12.445Z" fill="#424242"/>
</g>
<defs>
<clipPath id="clip0_2255_2004">
<rect width="18" height="18" fill="white"/>
</clipPath>
</defs>
</svg>
