<svg width="18" height="18" viewBox="0 0 18 18" fill="none" xmlns="http://www.w3.org/2000/svg">
<g clip-path="url(#clip0_2255_2645)">
<path d="M9.185 5.58496C8.78035 5.58554 8.37906 5.65835 8 5.79996L12.4 10.2C12.5434 9.81618 12.6162 9.40965 12.615 8.99996C12.611 8.09287 12.2479 7.22428 11.6051 6.58428C10.9623 5.94427 10.0921 5.58495 9.185 5.58496Z" fill="#8D8989"/>
<path d="M17.145 8.76465C15.46 5.64965 12.505 3.76465 9.23499 3.76465C8.34465 3.76657 7.46028 3.91003 6.61499 4.18965L7.41999 4.99965C8.01294 4.84651 8.6226 4.76758 9.23499 4.76465C12.05 4.76465 14.61 6.33465 16.135 8.97965C15.5751 9.9606 14.8335 10.826 13.95 11.5296L14.66 12.2396C15.6833 11.4146 16.533 10.395 17.16 9.23965L17.29 8.99965L17.145 8.76465Z" fill="#8D8989"/>
<path d="M2.43494 2.88953L4.66494 5.11953C3.25511 6.02674 2.10302 7.28215 1.31994 8.76453L1.18994 8.99953L1.31994 9.23953C3.00494 12.3545 5.95994 14.2395 9.22994 14.2395C10.5063 14.2398 11.7662 13.9509 12.9149 13.3945L15.4149 15.8945L16.2899 15.1445L3.28994 2.14453L2.43494 2.88953ZM6.58494 7.03953C6.11716 7.69923 5.8979 8.50318 5.966 9.30903C6.03409 10.1149 6.38515 10.8706 6.957 11.4425C7.52884 12.0143 8.2846 12.3654 9.09045 12.4335C9.89629 12.5016 10.7002 12.2823 11.3599 11.8145L12.1599 12.6145C11.2339 13.0105 10.2371 13.2146 9.22994 13.2145C6.41494 13.2145 3.85494 11.6445 2.32994 8.99953C3.06198 7.70378 4.11595 6.61881 5.38994 5.84953L6.58494 7.03953Z" fill="#8D8989"/>
</g>
<defs>
<clipPath id="clip0_2255_2645">
<rect width="18" height="18" fill="white"/>
</clipPath>
</defs>
</svg>
