<svg width="20" height="20" viewBox="0 0 20 20" fill="none" xmlns="http://www.w3.org/2000/svg">
<path d="M9.3125 3C7.86623 3 6.45243 3.42887 5.2499 4.23238C4.04736 5.03589 3.1101 6.17794 2.55663 7.51413C2.00317 8.85031 1.85836 10.3206 2.14051 11.7391C2.42267 13.1576 3.11911 14.4605 4.14178 15.4832C5.16446 16.5059 6.46742 17.2023 7.88591 17.4845C9.30439 17.7666 10.7747 17.6218 12.1109 17.0684C13.4471 16.5149 14.5891 15.5776 15.3926 14.3751C16.1961 13.1726 16.625 11.7588 16.625 10.3125C16.623 8.37373 15.8519 6.51496 14.481 5.14404C13.11 3.77313 11.2513 3.00205 9.3125 3ZM9.3125 16.5C8.08873 16.5 6.89244 16.1371 5.87491 15.4572C4.85738 14.7773 4.06432 13.811 3.596 12.6804C3.12768 11.5497 3.00515 10.3056 3.24389 9.10538C3.48264 7.90512 4.07194 6.80261 4.93728 5.93728C5.80262 5.07194 6.90512 4.48264 8.10538 4.24389C9.30564 4.00514 10.5497 4.12768 11.6804 4.596C12.811 5.06431 13.7773 5.85738 14.4572 6.87491C15.1371 7.89244 15.5 9.08873 15.5 10.3125C15.4981 11.953 14.8456 13.5257 13.6857 14.6857C12.5257 15.8456 10.953 16.4981 9.3125 16.5ZM10.4375 13.6875C10.4375 13.8367 10.3782 13.9798 10.2728 14.0852C10.1673 14.1907 10.0242 14.25 9.875 14.25C9.57663 14.25 9.29049 14.1315 9.07951 13.9205C8.86853 13.7095 8.75 13.4234 8.75 13.125V10.3125C8.60082 10.3125 8.45775 10.2532 8.35226 10.1477C8.24677 10.0423 8.1875 9.89918 8.1875 9.75C8.1875 9.60082 8.24677 9.45774 8.35226 9.35225C8.45775 9.24676 8.60082 9.1875 8.75 9.1875C9.04837 9.1875 9.33452 9.30603 9.5455 9.517C9.75648 9.72798 9.875 10.0141 9.875 10.3125V13.125C10.0242 13.125 10.1673 13.1843 10.2728 13.2898C10.3782 13.3952 10.4375 13.5383 10.4375 13.6875ZM8.1875 7.21875C8.1875 7.05187 8.23699 6.88874 8.3297 6.74999C8.42241 6.61123 8.55419 6.50309 8.70836 6.43923C8.86254 6.37537 9.03219 6.35866 9.19586 6.39121C9.35953 6.42377 9.50987 6.50413 9.62787 6.62213C9.74587 6.74013 9.82623 6.89047 9.85879 7.05414C9.89135 7.21781 9.87464 7.38746 9.81078 7.54164C9.74691 7.69581 9.63877 7.82759 9.50002 7.9203C9.36126 8.01302 9.19813 8.0625 9.03125 8.0625C8.80748 8.0625 8.59287 7.97361 8.43463 7.81537C8.2764 7.65714 8.1875 7.44253 8.1875 7.21875Z" fill="#424242"/>
</svg>
