<svg width="16" height="16" viewBox="0 0 16 16" fill="none" xmlns="http://www.w3.org/2000/svg">
<g clip-path="url(#clip0_2255_1353)">
<path d="M16 12.2891V16H12V14H10V12H8V10.3828C7.61458 10.5859 7.21094 10.7396 6.78906 10.8438C6.36719 10.9479 5.9375 11 5.5 11C4.99479 11 4.50781 10.9349 4.03906 10.8047C3.57031 10.6745 3.13281 10.4896 2.72656 10.25C2.32031 10.0104 1.95052 9.72396 1.61719 9.39062C1.28385 9.05729 0.994792 8.6849 0.75 8.27344C0.505208 7.86198 0.320312 7.42448 0.195312 6.96094C0.0703125 6.4974 0.00520833 6.01042 0 5.5C0 4.99479 0.0651042 4.50781 0.195312 4.03906C0.325521 3.57031 0.510417 3.13281 0.75 2.72656C0.989583 2.32031 1.27604 1.95052 1.60938 1.61719C1.94271 1.28385 2.3151 0.994792 2.72656 0.75C3.13802 0.505208 3.57552 0.320312 4.03906 0.195312C4.5026 0.0703125 4.98958 0.00520833 5.5 0C6.00521 0 6.49219 0.0651042 6.96094 0.195312C7.42969 0.325521 7.86719 0.510417 8.27344 0.75C8.67969 0.989583 9.04948 1.27604 9.38281 1.60938C9.71615 1.94271 10.0052 2.3151 10.25 2.72656C10.4948 3.13802 10.6797 3.57552 10.8047 4.03906C10.9297 4.5026 10.9948 4.98958 11 5.5C11 5.76562 10.9792 6.02865 10.9375 6.28906C10.8958 6.54948 10.8359 6.80469 10.7578 7.05469L16 12.2891ZM15 12.7109L9.60938 7.32031C9.72396 7.02344 9.81771 6.72656 9.89062 6.42969C9.96354 6.13281 10 5.82292 10 5.5C10 4.88021 9.88281 4.29688 9.64844 3.75C9.41406 3.20312 9.09115 2.72656 8.67969 2.32031C8.26823 1.91406 7.79167 1.59375 7.25 1.35938C6.70833 1.125 6.125 1.00521 5.5 1C4.88021 1 4.29688 1.11719 3.75 1.35156C3.20312 1.58594 2.72656 1.90885 2.32031 2.32031C1.91406 2.73177 1.59375 3.20833 1.35938 3.75C1.125 4.29167 1.00521 4.875 1 5.5C1 6.11979 1.11719 6.70312 1.35156 7.25C1.58594 7.79688 1.90885 8.27344 2.32031 8.67969C2.73177 9.08594 3.20833 9.40625 3.75 9.64062C4.29167 9.875 4.875 9.99479 5.5 10C6.00521 10 6.5 9.91406 6.98438 9.74219C7.46875 9.57031 7.90885 9.32292 8.30469 9H9V11H11V13H13V15H15V12.7109ZM4 3C4.14062 3 4.27083 3.02604 4.39062 3.07812C4.51042 3.13021 4.61458 3.20052 4.70312 3.28906C4.79167 3.3776 4.86458 3.48438 4.92188 3.60938C4.97917 3.73438 5.00521 3.86458 5 4C5 4.14062 4.97396 4.27083 4.92188 4.39062C4.86979 4.51042 4.79948 4.61458 4.71094 4.70312C4.6224 4.79167 4.51562 4.86458 4.39062 4.92188C4.26562 4.97917 4.13542 5.00521 4 5C3.85938 5 3.72917 4.97396 3.60938 4.92188C3.48958 4.86979 3.38542 4.79948 3.29688 4.71094C3.20833 4.6224 3.13542 4.51562 3.07812 4.39062C3.02083 4.26562 2.99479 4.13542 3 4C3 3.85938 3.02604 3.72917 3.07812 3.60938C3.13021 3.48958 3.20052 3.38542 3.28906 3.29688C3.3776 3.20833 3.48438 3.13542 3.60938 3.07812C3.73438 3.02083 3.86458 2.99479 4 3Z" fill="#424242"/>
</g>
<defs>
<clipPath id="clip0_2255_1353">
<rect width="16" height="16" fill="white"/>
</clipPath>
</defs>
</svg>
