<svg width="11" height="13" viewBox="0 0 11 13" fill="none" xmlns="http://www.w3.org/2000/svg">
<path d="M5.25 7.25V9.125M3.375 5.375V2.875C3.375 2.37772 3.57254 1.90081 3.92417 1.54917C4.27581 1.19754 4.75272 1 5.25 1C5.74728 1 6.22419 1.19754 6.57583 1.54917C6.92746 1.90081 7.125 2.37772 7.125 2.875V5.375M2.125 5.375H8.375C8.54076 5.375 8.69973 5.44085 8.81694 5.55806C8.93415 5.67527 9 5.83424 9 6V10.375C9 10.5408 8.93415 10.6997 8.81694 10.8169C8.69973 10.9342 8.54076 11 8.375 11H2.125C1.95924 11 1.80027 10.9342 1.68306 10.8169C1.56585 10.6997 1.5 10.5408 1.5 10.375V6C1.5 5.83424 1.56585 5.67527 1.68306 5.55806C1.80027 5.44085 1.95924 5.375 2.125 5.375Z" stroke="#979797" stroke-linecap="round" stroke-linejoin="round"/>
</svg>
