<svg width="20" height="20" viewBox="0 0 20 20" fill="none" xmlns="http://www.w3.org/2000/svg">
<path d="M2.5 4.16699H7.025C7.29932 4.16703 7.56941 4.09936 7.8113 3.96998C8.0532 3.84061 8.25942 3.65352 8.41167 3.42533L9.08833 2.40866C9.24058 2.18047 9.4468 1.99338 9.6887 1.864C9.93059 1.73462 10.2007 1.66695 10.475 1.66699H14.215C14.5649 1.66691 14.906 1.77697 15.1899 1.98159C15.4738 2.1862 15.6861 2.47498 15.7967 2.80699L16.25 4.16699M17.5 4.16699H6.66667" stroke="#1E293B" stroke-linecap="round"/>
<path d="M16.25 4.16699L15.8333 9.58366M3.75 4.16699L4.25417 12.947C4.3825 15.0887 4.4475 16.1603 4.9825 16.9303C5.24667 17.312 5.5875 17.6328 5.9825 17.8745C6.4675 18.1712 7.0525 18.2878 7.91667 18.3337" stroke="#1E293B" stroke-linecap="round"/>
<path d="M9.16699 12.9151L10.1137 14.1368C10.2856 13.4949 10.6455 12.9191 11.1471 12.4832C11.6486 12.0474 12.2691 11.7714 12.9286 11.6907C13.5882 11.61 14.2569 11.7283 14.8487 12.0303C15.4406 12.3324 15.9287 12.8045 16.2503 13.386M17.5003 17.0818L16.5537 15.8618C16.3831 16.4987 16.0275 17.0706 15.5318 17.5054C15.0361 17.9401 14.4227 18.2181 13.769 18.3042C13.1153 18.3903 12.4508 18.2806 11.8595 17.989C11.2682 17.6974 10.7766 17.237 10.447 16.666" stroke="#1E293B" stroke-linecap="round" stroke-linejoin="round"/>
</svg>
