<svg width="11" height="13" viewBox="0 0 11 13" fill="none" xmlns="http://www.w3.org/2000/svg">
<path d="M9.5 2.65C9.63261 2.65 9.75979 2.70795 9.85355 2.81109C9.94732 2.91424 10 3.05413 10 3.2C10 3.34587 9.94732 3.48576 9.85355 3.58891C9.75979 3.69205 9.63261 3.75 9.5 3.75H9L8.9985 3.78905L8.532 10.9781C8.51404 11.2556 8.40115 11.5153 8.21606 11.705C8.03097 11.8946 7.78743 12 7.5345 12H3.465C3.21207 12 2.96853 11.8946 2.78344 11.705C2.59835 11.5153 2.48546 11.2556 2.4675 10.9781L2.001 3.7896L2 3.75H1.5C1.36739 3.75 1.24021 3.69205 1.14645 3.58891C1.05268 3.48576 1 3.34587 1 3.2C1 3.05413 1.05268 2.91424 1.14645 2.81109C1.24021 2.70795 1.36739 2.65 1.5 2.65H9.5ZM7.9985 3.75H3.0015L3.4655 10.9H7.5345L7.9985 3.75ZM6.5 1C6.63261 1 6.75979 1.05795 6.85355 1.16109C6.94732 1.26424 7 1.40413 7 1.55C7 1.69587 6.94732 1.83576 6.85355 1.93891C6.75979 2.04205 6.63261 2.1 6.5 2.1H4.5C4.36739 2.1 4.24021 2.04205 4.14645 1.93891C4.05268 1.83576 4 1.69587 4 1.55C4 1.40413 4.05268 1.26424 4.14645 1.16109C4.24021 1.05795 4.36739 1 4.5 1H6.5Z" fill="#979797"/>
</svg>
