<svg width="11" height="11" viewBox="0 0 11 11" fill="none" xmlns="http://www.w3.org/2000/svg">
<g clip-path="url(#clip0_1653_61798)">
<path d="M4.23077 0C2.59981 0 1.26923 1.33058 1.26923 2.96154C1.26923 3.98115 1.78962 4.88654 2.57823 5.42088C1.06912 6.06819 0 7.56588 0 9.30769H0.846154C0.846154 7.43346 2.35654 5.92308 4.23077 5.92308C5.13827 5.92308 5.94973 6.29496 6.55769 6.875L4.56119 8.8715L4.53496 9.0035L4.24388 10.4978L4.11188 11.1189L4.73338 10.9869L6.22685 10.6958L6.35927 10.6696L10.6298 6.39904C11.1206 5.90827 11.1206 5.09173 10.6298 4.60096C10.3929 4.36623 10.0735 4.23347 9.74 4.23102C9.40648 4.22856 9.08522 4.35663 8.84485 4.58785L7.16608 6.26704C6.79313 5.90979 6.35852 5.6231 5.88331 5.42088C6.28597 5.14924 6.61586 4.78299 6.84407 4.35422C7.07228 3.92545 7.19186 3.44726 7.19231 2.96154C7.19231 1.33058 5.86173 0 4.23077 0ZM4.23077 0.846154C5.40396 0.846154 6.34615 1.78835 6.34615 2.96154C6.34615 4.13473 5.40396 5.07692 4.23077 5.07692C3.05758 5.07692 2.11538 4.13473 2.11538 2.96154C2.11538 1.78835 3.05758 0.846154 4.23077 0.846154ZM9.73077 5.07692C9.83823 5.07692 9.95077 5.11162 10.035 5.19581C10.0749 5.23436 10.1067 5.28057 10.1284 5.33167C10.1501 5.38277 10.1613 5.43771 10.1613 5.49323C10.1613 5.54875 10.1501 5.6037 10.1284 5.6548C10.1067 5.7059 10.0749 5.7521 10.035 5.79065L5.93619 9.88942L5.18269 10.0481L5.34135 9.29458L9.44011 5.19581C9.47781 5.1571 9.52306 5.12657 9.57307 5.10611C9.62307 5.08566 9.67676 5.07572 9.73077 5.07692Z" fill="#424242"/>
</g>
<defs>
<clipPath id="clip0_1653_61798">
<rect width="11" height="11" fill="white"/>
</clipPath>
</defs>
</svg>
