<svg width="15" height="20" viewBox="0 0 15 20" fill="none" xmlns="http://www.w3.org/2000/svg">
<path fill-rule="evenodd" clip-rule="evenodd" d="M2.5 1.5C2.10218 1.5 1.72064 1.65804 1.43934 1.93934C1.15804 2.22064 1 2.60218 1 3V17C1 17.3978 1.15804 17.7794 1.43934 18.0607C1.72064 18.342 2.10218 18.5 2.5 18.5H12.5C12.8978 18.5 13.2794 18.342 13.5607 18.0607C13.842 17.7794 14 17.3978 14 17V7.41411C13.9999 7.28155 13.9473 7.15433 13.8535 7.06061L8.43945 1.64655C8.34573 1.5528 8.21856 1.50006 8.086 1.5H2.5ZM0.732233 1.23223C1.20107 0.763392 1.83696 0.5 2.5 0.5H8.086C8.48377 0.500085 8.86532 0.658156 9.14655 0.939447M9.14655 0.939447L14.5605 6.35339C14.8418 6.63463 14.9999 7.01613 15 7.41389V17C15 17.663 14.7366 18.2989 14.2678 18.7678C13.7989 19.2366 13.163 19.5 12.5 19.5H2.5C1.83696 19.5 1.20107 19.2366 0.732233 18.7678C0.263392 18.2989 0 17.663 0 17V3C0 2.33696 0.263392 1.70107 0.732233 1.23223" fill="#E72A2A"/>
<path fill-rule="evenodd" clip-rule="evenodd" d="M2.97188 7.97188C3.27403 7.66974 3.68382 7.5 4.11111 7.5H7.88889C8.31618 7.5 8.72598 7.66974 9.02812 7.97188C9.33026 8.27402 9.5 8.68382 9.5 9.11111V9.35739L10.9466 8.52447C10.9552 8.51956 10.9638 8.51491 10.9726 8.51051C11.1335 8.43011 11.3123 8.39216 11.4919 8.40025C11.6716 8.40835 11.8462 8.46222 11.9993 8.55675C12.1523 8.65128 12.2786 8.78334 12.3662 8.94041C12.4539 9.09748 12.4999 9.27433 12.5 9.45418V13.2122C12.4999 13.3921 12.4539 13.5692 12.3662 13.7263C12.2786 13.8833 12.1523 14.0154 11.9993 14.1099C11.8462 14.2045 11.6716 14.2583 11.4919 14.2664C11.3123 14.2745 11.1335 14.2366 10.9726 14.1562C10.9638 14.1518 10.9552 14.1471 10.9466 14.1422L9.5 13.3093V13.5556C9.5 13.9828 9.33026 14.3926 9.02812 14.6948C8.72598 14.9969 8.31618 15.1667 7.88889 15.1667H4.11111C3.68382 15.1667 3.27403 14.9969 2.97188 14.6948C2.66974 14.3926 2.5 13.9828 2.5 13.5556V9.11111C2.5 8.68382 2.66974 8.27403 2.97188 7.97188ZM9.5 12.1554L11.4262 13.2644C11.4328 13.2667 11.4399 13.2677 11.4469 13.2674C11.4564 13.267 11.4656 13.2642 11.4736 13.2592C11.4817 13.2542 11.4884 13.2473 11.493 13.239C11.4976 13.2307 11.5 13.2214 11.5 13.212V9.45471C11.5 9.44524 11.4976 9.43593 11.493 9.42767C11.4884 9.41941 11.4817 9.41246 11.4736 9.40748C11.4656 9.4025 11.4564 9.39967 11.4469 9.39924C11.4399 9.39892 11.4328 9.39996 11.4262 9.40228L9.5 10.5113V12.1554ZM8.5 9.11111C8.5 8.94903 8.43562 8.7936 8.32101 8.67899C8.20641 8.56438 8.05097 8.5 7.88889 8.5H4.11111C3.94904 8.5 3.7936 8.56438 3.67899 8.67899C3.56439 8.7936 3.5 8.94903 3.5 9.11111V13.5556C3.5 13.7176 3.56439 13.8731 3.67899 13.9877C3.7936 14.1023 3.94904 14.1667 4.11111 14.1667H7.88889C8.05097 14.1667 8.2064 14.1023 8.32101 13.9877C8.43562 13.8731 8.5 13.7176 8.5 13.5556V9.11111Z" fill="#E72A2A"/>
</svg>
