<svg width="20" height="20" viewBox="0 0 20 20" fill="none" xmlns="http://www.w3.org/2000/svg">
<g clip-path="url(#clip0_2065_2586)">
<g clip-path="url(#clip1_2065_2586)">
<path d="M18.3214 14.2501V16.9644C18.3214 17.3244 18.1785 17.6696 17.9239 17.9241C17.6694 18.1786 17.3242 18.3216 16.9643 18.3216H14.25M14.25 0.678711H16.9643C17.3242 0.678711 17.6694 0.821695 17.9239 1.07621C18.1785 1.33072 18.3214 1.67592 18.3214 2.03585V4.75014M0.678589 4.75014V2.03585C0.678589 1.67592 0.821573 1.33072 1.07609 1.07621C1.3306 0.821695 1.6758 0.678711 2.03573 0.678711H4.75002M4.75002 18.3216H2.03573C1.6758 18.3216 1.3306 18.1786 1.07609 17.9241C0.821573 17.6696 0.678589 17.3244 0.678589 16.9644V14.2501M9.50002 8.82157C10.2199 8.82157 10.9103 8.5356 11.4193 8.02657C11.9283 7.51755 12.2143 6.82716 12.2143 6.10728C12.2143 5.38741 11.9283 4.69702 11.4193 4.18799C10.9103 3.67897 10.2199 3.393 9.50002 3.393C8.78014 3.393 8.08975 3.67897 7.58073 4.18799C7.0717 4.69702 6.78573 5.38741 6.78573 6.10728C6.78573 6.82716 7.0717 7.51755 7.58073 8.02657C8.08975 8.5356 8.78014 8.82157 9.50002 8.82157ZM14.6612 14.9287C14.3104 13.8356 13.6216 12.882 12.6941 12.2055C11.7665 11.529 10.6481 11.1645 9.50002 11.1645C8.35195 11.1645 7.23354 11.529 6.30597 12.2055C5.3784 12.882 4.68959 13.8356 4.3388 14.9287H14.6612Z" stroke="#424242" stroke-linecap="round" stroke-linejoin="round"/>
</g>
</g>
<defs>
<clipPath id="clip0_2065_2586">
<rect width="19" height="19" fill="white"/>
</clipPath>
<clipPath id="clip1_2065_2586">
<rect width="19" height="19" fill="white"/>
</clipPath>
</defs>
</svg>
